<?xml version="1.0" standalone="no"?>
<!DOCTYPE svg PUBLIC "-//W3C//DTD SVG 20010904//EN"
 "http://www.w3.org/TR/2001/REC-SVG-20010904/DTD/svg10.dtd">
<svg version="1.0" xmlns="http://www.w3.org/2000/svg"
 width="84.000000pt" height="102.400000pt" viewBox="0 0 840.000000 1024.000000"
 preserveAspectRatio="xMidYMid meet">

<g transform="translate(0.000000,1024.000000) scale(0.100000,-0.100000)"
fill="#000000" stroke="none">
<path d="M4307 9825 c-336 -64 -657 -294 -884 -635 -143 -213 -249 -502 -287
-776 -40 -293 -32 -481 54 -1284 65 -613 80 -833 80 -1215 0 -258 -8 -457 -26
-595 -15 -114 -48 -305 -70 -400 -22 -96 -81 -300 -89 -308 -2 -2 -52 33 -112
79 -522 398 -1040 618 -1457 619 -160 0 -371 -52 -523 -129 -261 -132 -507
-395 -691 -741 -62 -116 -80 -164 -92 -253 -38 -262 139 -496 522 -693 280
-143 662 -259 1097 -333 181 -31 222 -46 326 -123 99 -73 232 -205 540 -538
161 -173 365 -386 454 -472 l162 -158 -32 -92 c-29 -82 -33 -106 -33 -198 0
-128 24 -224 90 -349 111 -214 336 -418 575 -522 453 -196 1295 -288 1864
-203 281 42 466 114 678 265 169 120 289 272 332 423 31 105 15 265 -39 387
-5 12 22 40 106 112 134 113 344 325 450 453 448 543 731 1229 853 2065 64
441 54 737 -35 1089 -135 536 -388 896 -755 1077 -135 66 -260 101 -492 138
-27 5 -35 14 -66 78 -156 323 -472 588 -850 712 -204 66 -302 80 -576 80
l-244 0 6 370 c7 410 16 600 49 1000 27 321 28 474 5 565 -50 193 -176 351
-348 433 -52 25 -123 53 -159 62 -92 23 -286 28 -383 10z m408 -275 c82 -32
164 -114 194 -193 41 -112 45 -178 22 -452 -47 -571 -61 -911 -61 -1450 0
-511 13 -716 61 -979 55 -299 167 -578 332 -824 38 -57 71 -102 73 -100 2 2
-8 40 -22 83 -32 105 -77 325 -103 500 -35 246 -71 688 -71 892 l0 81 68 9
c115 14 387 8 492 -11 376 -68 672 -269 833 -566 20 -36 73 -168 118 -295 93
-262 181 -473 244 -590 46 -85 144 -229 151 -223 2 3 -7 54 -21 114 -13 60
-47 239 -74 398 l-49 288 56 -6 c74 -9 251 -68 321 -108 283 -159 456 -413
566 -829 93 -355 104 -611 44 -1024 -119 -827 -382 -1462 -820 -1981 -151
-178 -455 -454 -619 -559 -120 -78 -296 -136 -510 -169 -347 -55 -911 -48
-1330 15 -395 60 -583 124 -815 276 -219 145 -419 330 -870 809 -407 430 -556
568 -725 667 -105 61 -142 74 -288 97 -633 100 -1118 275 -1317 474 -80 79
-109 144 -110 236 0 69 3 82 44 160 68 133 201 327 291 422 145 156 306 259
485 310 69 19 103 23 240 22 117 0 179 -4 230 -17 358 -88 707 -285 1178 -664
70 -56 139 -106 153 -109 41 -11 95 3 126 32 61 59 189 452 242 744 60 326 84
746 67 1141 -13 304 -27 482 -77 949 -56 537 -63 606 -74 798 -24 399 33 724
176 1003 94 183 215 329 369 445 124 93 238 147 400 190 121 32 289 30 380 -6z
m-1087 -7919 c249 -167 459 -246 817 -305 731 -123 1544 -89 1967 80 49 19 92
33 97 29 16 -9 33 -114 26 -158 -23 -135 -157 -263 -410 -390 -114 -57 -217
-89 -380 -118 -119 -22 -159 -24 -460 -24 -336 0 -416 5 -665 46 -371 61 -621
150 -812 292 -204 150 -302 301 -302 462 0 62 17 145 30 145 3 0 44 -26 92
-59z"/>
<path d="M5765 3841 c-36 -22 -61 -49 -69 -76 -3 -11 -28 -189 -56 -395 -71
-530 -114 -771 -215 -1208 -21 -89 -14 -130 27 -171 56 -54 124 -54 184 2 32
30 37 43 75 207 51 220 93 432 124 625 29 177 125 874 125 908 0 37 -34 89
-71 109 -43 23 -86 23 -124 -1z"/>
<path d="M4773 3364 c-69 -34 -67 -22 -74 -504 -5 -284 -12 -490 -23 -594 -19
-183 -14 -211 40 -253 63 -48 145 -32 196 38 32 44 50 304 55 789 4 413 3 437
-15 469 -35 63 -113 87 -179 55z"/>
<path d="M6574 3316 c-17 -8 -40 -26 -52 -41 -11 -14 -53 -126 -92 -248 -96
-298 -154 -441 -282 -700 -87 -175 -108 -227 -108 -261 0 -73 59 -126 139
-126 71 0 98 35 220 284 135 274 188 406 286 710 84 260 88 294 43 343 -25 28
-77 53 -105 53 -10 -1 -32 -7 -49 -14z"/>
</g>
</svg>
