<svg width="30" height="19" viewBox="0 0 30 19" fill="none" xmlns="http://www.w3.org/2000/svg">
<path id="Vector" d="M1.169 0.000115267C1.01627 -0.00204473 0.864631 0.026172 0.7229 0.0831255C0.581169 0.140079 0.45217 0.224633 0.343401 0.331875C0.234632 0.439116 0.148262 0.566906 0.0893101 0.707818C0.0303581 0.848729 0 0.999952 0 1.1527C0 1.30545 0.0303581 1.45667 0.0893101 1.59758C0.148262 1.73849 0.234632 1.86628 0.343401 1.97352C0.45217 2.08076 0.581169 2.16532 0.7229 2.22227C0.864631 2.27923 1.01627 2.30744 1.169 2.30528H28.831C28.9837 2.30744 29.1354 2.27923 29.2771 2.22227C29.4188 2.16532 29.5478 2.08076 29.6566 1.97352C29.7654 1.86628 29.8517 1.73849 29.9107 1.59758C29.9696 1.45667 30 1.30545 30 1.1527C30 0.999952 29.9696 0.848729 29.9107 0.707818C29.8517 0.566906 29.7654 0.439116 29.6566 0.331875C29.5478 0.224633 29.4188 0.140079 29.2771 0.0831255C29.1354 0.026172 28.9837 -0.00204473 28.831 0.000115267H1.169ZM1.169 8.0682C1.01627 8.06604 0.864631 8.09426 0.7229 8.15121C0.581169 8.20816 0.45217 8.29272 0.343401 8.39996C0.234632 8.5072 0.148262 8.63499 0.0893101 8.7759C0.0303581 8.91681 0 9.06804 0 9.22078C0 9.37353 0.0303581 9.52475 0.0893101 9.66566C0.148262 9.80658 0.234632 9.93437 0.343401 10.0416C0.45217 10.1488 0.581169 10.2334 0.7229 10.2904C0.864631 10.3473 1.01627 10.3755 1.169 10.3734H28.831C28.9837 10.3755 29.1354 10.3473 29.2771 10.2904C29.4188 10.2334 29.5478 10.1488 29.6566 10.0416C29.7654 9.93437 29.8517 9.80658 29.9107 9.66566C29.9696 9.52475 30 9.37353 30 9.22078C30 9.06804 29.9696 8.91681 29.9107 8.7759C29.8517 8.63499 29.7654 8.5072 29.6566 8.39996C29.5478 8.29272 29.4188 8.20816 29.2771 8.15121C29.1354 8.09426 28.9837 8.06604 28.831 8.0682H1.169ZM1.169 16.1363C1.01627 16.1341 0.864631 16.1623 0.7229 16.2193C0.581169 16.2762 0.45217 16.3608 0.343401 16.468C0.234632 16.5753 0.148262 16.7031 0.0893101 16.844C0.0303581 16.9849 0 17.1361 0 17.2889C0 17.4416 0.0303581 17.5928 0.0893101 17.7337C0.148262 17.8747 0.234632 18.0025 0.343401 18.1097C0.45217 18.2169 0.581169 18.3015 0.7229 18.3584C0.864631 18.4154 1.01627 18.4436 1.169 18.4414H28.831C28.9837 18.4436 29.1354 18.4154 29.2771 18.3584C29.4188 18.3015 29.5478 18.2169 29.6566 18.1097C29.7654 18.0025 29.8517 17.8747 29.9107 17.7337C29.9696 17.5928 30 17.4416 30 17.2889C30 17.1361 29.9696 16.9849 29.9107 16.844C29.8517 16.7031 29.7654 16.5753 29.6566 16.468C29.5478 16.3608 29.4188 16.2762 29.2771 16.2193C29.1354 16.1623 28.9837 16.1341 28.831 16.1363H1.169Z" fill="white"/>
</svg>
