<svg width="30" height="30" viewBox="0 0 30 30" fill="none" xmlns="http://www.w3.org/2000/svg">
<path d="M28.296 12.7326L24.75 12.153C24.5424 11.4414 24.2586 10.7574 23.9034 10.11L25.9734 7.15981C26.1408 6.92161 26.112 6.59701 25.9062 6.39061L23.5728 4.05841C23.3646 3.85081 23.037 3.82381 22.7982 3.99601L19.8924 6.08461C19.239 5.72341 18.549 5.43661 17.8332 5.22841L17.2146 1.69681C17.1642 1.41001 16.9152 1.20001 16.6236 1.20001H13.3236C13.0296 1.20001 12.7788 1.41301 12.7314 1.70341L12.1578 5.21581C11.4378 5.42281 10.7466 5.70661 10.0956 6.06301L7.19757 3.99301C6.95817 3.82201 6.63237 3.84961 6.42417 4.05661L4.09197 6.38881C3.88617 6.59461 3.85737 6.91861 4.02477 7.15681L6.06417 10.0746C5.70117 10.7316 5.41197 11.427 5.20137 12.1506L1.70277 12.7332C1.41357 12.7812 1.20117 13.032 1.20117 13.3248V16.6248C1.20117 16.9158 1.40997 17.1648 1.69617 17.2158L5.19477 17.8362C5.40417 18.558 5.69337 19.2534 6.05757 19.9122L3.99297 22.8C3.82257 23.0382 3.84957 23.3652 4.05657 23.5734L6.38937 25.908C6.59517 26.1138 6.91977 26.1426 7.15797 25.9752L10.08 23.9286C10.7358 24.2892 11.4288 24.5754 12.147 24.783L12.7326 28.2996C12.78 28.5882 13.0302 28.8 13.3236 28.8H16.6236C16.9146 28.8 17.1636 28.5912 17.214 28.305L17.841 24.771C18.5604 24.5592 19.2498 24.2712 19.899 23.91L22.842 25.9746C23.0808 26.1432 23.4048 26.1138 23.6112 25.908L25.944 23.5734C26.1516 23.3652 26.1786 23.037 26.0064 22.7982L23.9076 19.884C24.2634 19.236 24.546 18.5508 24.7518 17.8392L28.3026 17.2158C28.59 17.1654 28.7988 16.9158 28.7988 16.6248V13.3248C28.7994 13.0308 28.5864 12.78 28.296 12.7326ZM15 19.2C12.6804 19.2 10.8 17.3196 10.8 15C10.8 12.6804 12.6804 10.8 15 10.8C17.3196 10.8 19.2 12.6804 19.2 15C19.2 17.3196 17.3196 19.2 15 19.2Z" fill="white"/>
</svg>
